<svg width="300" height="90" viewBox="0 0 300 90" fill="none" xmlns="http://www.w3.org/2000/svg">
<mask id="mask0_71_111" style="mask-type:luminance" maskUnits="userSpaceOnUse" x="6" y="0" width="88" height="74">
<path d="M6.51953 0H93.8039V73.0414H6.51953V0Z" fill="white"/>
</mask>
<g mask="url(#mask0_71_111)">
<path d="M50.1549 0.0353394C26.055 0.0353394 6.52148 19.56 6.52148 43.6445C6.52148 54.8395 10.7446 65.0442 17.6835 72.7665L29.3054 61.4482L36.3829 68.2682L65.1901 30.5107L86.9903 67.005C91.2883 60.2511 93.7883 52.2427 93.7883 43.6445C93.7883 19.56 74.2526 0.0353394 50.1549 0.0353394Z" fill="#FE9910"/>
</g>
<mask id="mask1_71_111" style="mask-type:luminance" maskUnits="userSpaceOnUse" x="0" y="30" width="88" height="61">
<path d="M0 30.2246H87.0819V90.0002H0V30.2246Z" fill="white"/>
</mask>
<g mask="url(#mask1_71_111)">
<path d="M65.1903 30.5107L36.3831 68.2683L29.3056 61.4483L17.6837 72.7665L-0.0078125 89.9892L23.2426 79.5073L23.828 78.4157L30.571 65.8695L42.1951 80.8981L54.3232 57.4078L58.4936 69.7845L65.8219 39.6041L82.5935 72.8017C84.2154 71.0015 85.6833 69.0605 86.9905 67.005L65.1903 30.5107Z" fill="#2F364B"/>
</g>
<path d="M88.1736 47.0626V52.6842H84V37.2432H89.0618C93.2537 37.2432 95.3526 38.7641 95.3526 41.8061C95.3526 43.5918 94.4796 44.9759 92.7365 45.9554L97.2387 52.6842H92.5054L89.2322 47.0626H88.1736ZM88.1736 43.9233H88.9523C90.4125 43.9233 91.1425 43.2784 91.1425 41.9886C91.1425 40.927 90.4277 40.3946 89.001 40.3946H88.1736V43.9233Z" fill="#2F364B"/>
<path d="M109.846 52.6842H100.672V37.2432H109.846V40.5893H104.845V43.0229H109.469V46.3691H104.845V49.2772H109.846V52.6842Z" fill="#2F364B"/>
<path d="M123.251 37.2432H127.923L122.862 52.6842H117.946L112.908 37.2432H117.593L119.698 45.0671C120.136 46.8041 120.373 48.0178 120.416 48.7053C120.464 48.2125 120.562 47.595 120.708 46.8558C120.86 46.1196 120.994 45.5386 121.109 45.1158L123.251 37.2432Z" fill="#2F364B"/>
<path d="M137.128 42.9621L139.793 37.2432H144.319L139.233 46.6489V52.6842H135.035V46.7828L129.949 37.2432H134.488L137.128 42.9621Z" fill="#2F364B"/>
<path d="M164.839 52.6842H155.664V37.2432H164.839V40.5893H159.838V43.0229H164.461V46.3691H159.838V49.2772H164.839V52.6842Z" fill="#2F364B"/>
<path d="M184.025 44.9456C184.025 48.4439 182.909 50.7984 180.679 52.0152L184.451 56.3591H179.256L176.53 52.9278L176.518 52.9156V52.8913C174.09 52.8913 172.229 52.2159 170.933 50.8592C169.643 49.4964 168.998 47.5191 168.998 44.9213C168.998 42.3508 169.637 40.3888 170.921 39.032C172.21 37.6784 174.078 37 176.53 37C178.988 37 180.85 37.6753 182.115 39.0199C183.387 40.3583 184.025 42.3356 184.025 44.9456ZM173.391 44.9456C173.391 47.9328 174.431 49.4234 176.518 49.4234C177.57 49.4234 178.355 49.0645 178.866 48.3405C179.377 47.6104 179.633 46.4788 179.633 44.9456C179.633 43.4064 179.371 42.2657 178.854 41.5265C178.334 40.7903 177.558 40.4192 176.53 40.4192C174.437 40.4192 173.391 41.928 173.391 44.9456Z" fill="#2F364B"/>
<path d="M201.968 37.2432V46.5394C201.968 48.5593 201.396 50.1259 200.253 51.2362C199.109 52.3405 197.457 52.8911 195.3 52.8911C193.198 52.8911 191.58 52.3557 190.445 51.2849C189.317 50.208 188.754 48.6566 188.754 46.6368V37.2432H192.952V46.3082C192.952 47.3973 193.153 48.1882 193.56 48.681C193.974 49.1768 194.576 49.4232 195.373 49.4232C196.225 49.4232 196.839 49.1799 197.223 48.6931C197.603 48.2003 197.795 47.3973 197.795 46.2839V37.2432H201.968Z" fill="#2F364B"/>
<path d="M207.242 52.6842V37.2432H211.44V52.6842H207.242Z" fill="#2F364B"/>
<path d="M228.011 42.1468C228.011 43.8747 227.5 45.2101 226.478 46.1501C225.462 47.0931 224.02 47.5615 222.146 47.5615H220.978V52.6842H216.805V37.2432H222.146C224.099 37.2432 225.566 37.669 226.539 38.5208C227.519 39.3725 228.011 40.5832 228.011 42.1468ZM220.978 44.1545H221.745C222.368 44.1545 222.864 43.9811 223.229 43.6313C223.6 43.2845 223.789 42.7978 223.789 42.1712C223.789 41.1338 223.211 40.6137 222.061 40.6137H220.978V44.1545Z" fill="#2F364B"/>
<path d="M239.235 52.6842L236.083 41.5628H235.986C236.132 43.4549 236.205 44.9272 236.205 45.9797V52.6842H232.506V37.2432H238.067L241.291 48.2064H241.376L244.528 37.2432H250.101V52.6842H246.268V45.9189C246.268 45.563 246.271 45.1705 246.28 44.7386C246.286 44.3097 246.335 43.2602 246.426 41.5871H246.329L243.214 52.6842H239.235Z" fill="#2F364B"/>
<path d="M264.624 52.6842H255.449V37.2432H264.624V40.5893H259.623V43.0229H264.247V46.3691H259.623V49.2772H264.624V52.6842Z" fill="#2F364B"/>
<path d="M284.066 52.6842H278.591L272.945 41.8061H272.86C272.988 43.5187 273.055 44.8238 273.055 45.7242V52.6842H269.355V37.2432H274.807L280.428 47.9752H280.489C280.392 46.4177 280.343 45.1705 280.343 44.2275V37.2432H284.066V52.6842Z" fill="#2F364B"/>
<path d="M296.241 52.6842H292.067V40.6502H288.295V37.2432H300V40.6502H296.241V52.6842Z" fill="#2F364B"/>
<path d="M96.1659 65.8258H96.8595C97.5409 65.8258 98.0428 65.7133 98.3683 65.4851C98.6998 65.26 98.8672 64.901 98.8672 64.4143C98.8672 63.9367 98.6998 63.596 98.3683 63.3922C98.0337 63.1823 97.5196 63.0759 96.8229 63.0759H96.1659V65.8258ZM96.1659 67.5902V71.496H94V61.3115H96.969C98.3561 61.3115 99.3812 61.564 100.047 62.0659C100.711 62.5709 101.045 63.3314 101.045 64.3535C101.045 64.9558 100.878 65.4912 100.546 65.9597C100.221 66.4312 99.7554 66.7962 99.147 67.0548C100.68 69.3515 101.678 70.8329 102.14 71.496H99.7432L97.3097 67.5902H96.1659Z" fill="#1D4C67"/>
<path d="M114.529 71.496H108.652V61.3115H114.529V63.0759H110.818V65.3148H114.262V67.0791H110.818V69.7074H114.529V71.496Z" fill="#1D4C67"/>
<path d="M130.92 71.496H128.182L123.741 63.7938H123.68C123.768 65.1505 123.814 66.1178 123.814 66.7019V71.496H121.879V61.3115H124.605L129.034 68.9408H129.082C129.009 67.6206 128.973 66.6836 128.973 66.13V61.3115H130.92V71.496Z" fill="#1D4C67"/>
<path d="M142.643 71.496H140.489V63.1002H137.715V61.3115H145.417V63.1002H142.643V71.496Z" fill="#1D4C67"/>
<path d="M158.451 71.4959L157.709 69.0745H153.998L153.256 71.4959H150.932L154.533 61.2627H157.174L160.775 71.4959H158.451ZM157.198 67.2615C156.517 65.0652 156.13 63.824 156.042 63.5381C155.96 63.2461 155.899 63.0149 155.86 62.8445C155.704 63.4468 155.266 64.9191 154.546 67.2615H157.198Z" fill="#1D4C67"/>
<path d="M167.289 71.496V61.3115H169.455V69.7074H173.592V71.496H167.289Z" fill="#1D4C67"/>
<path d="M186.607 68.6609C186.607 69.5857 186.272 70.3127 185.609 70.839C184.943 71.3683 184.021 71.6299 182.847 71.6299C181.758 71.6299 180.796 71.4291 179.963 71.0215V69.0138C180.65 69.3241 181.231 69.5431 181.703 69.6709C182.18 69.7926 182.619 69.8534 183.017 69.8534C183.485 69.8534 183.847 69.7652 184.1 69.5857C184.359 69.4001 184.489 69.1294 184.489 68.7705C184.489 68.5697 184.432 68.3902 184.319 68.2351C184.203 68.083 184.039 67.937 183.82 67.797C183.607 67.651 183.169 67.4198 182.506 67.1035C181.879 66.8114 181.411 66.5316 181.095 66.2639C180.784 65.9901 180.538 65.6737 180.352 65.3148C180.173 64.9589 180.085 64.5421 180.085 64.0615C180.085 63.1611 180.389 62.4553 180.997 61.9443C181.606 61.4271 182.448 61.1655 183.528 61.1655C184.054 61.1655 184.556 61.2325 185.037 61.3602C185.524 61.4819 186.029 61.6583 186.558 61.8834L185.852 63.5626C185.308 63.3375 184.857 63.1793 184.502 63.0881C184.152 62.9998 183.802 62.9542 183.455 62.9542C183.047 62.9542 182.737 63.0515 182.518 63.2462C182.299 63.4348 182.19 63.6812 182.19 63.9885C182.19 64.1832 182.232 64.3535 182.323 64.4995C182.412 64.6395 182.549 64.7733 182.737 64.9011C182.932 65.0319 183.388 65.2722 184.112 65.619C185.067 66.0753 185.721 66.5316 186.071 66.9939C186.427 67.4502 186.607 68.0039 186.607 68.6609Z" fill="#1D4C67"/>
</svg>
